<?xml version="1.0" standalone="no"?>
<!DOCTYPE svg PUBLIC "-//W3C//DTD SVG 20010904//EN"
 "http://www.w3.org/TR/2001/REC-SVG-20010904/DTD/svg10.dtd">
<svg version="1.0" xmlns="http://www.w3.org/2000/svg"
 width="826.000000pt" height="1280.000000pt" viewBox="0 0 826.000000 1280.000000"
 preserveAspectRatio="xMidYMid meet">
<metadata>
Created by potrace 1.15, written by Peter Selinger 2001-2017
</metadata>
<g transform="translate(0.000000,1280.000000) scale(0.100000,-0.100000)"
fill="#000000" stroke="none">
<path d="M6320 12785 c-183 -41 -359 -180 -438 -346 -44 -92 -72 -200 -72
-278 l0 -51 49 0 48 0 6 73 c17 224 166 418 376 489 49 16 90 22 161 22 162 1
273 -44 385 -158 101 -102 165 -238 165 -353 0 -21 3 -43 8 -48 4 -6 6 -513 4
-1127 l-3 -1118 -561 0 -561 0 6 1105 7 1105 -44 0 -43 0 -7 -877 c-4 -483
-11 -2424 -15 -4313 -4 -1889 -8 -3436 -9 -3437 -1 -2 -7 -3 -13 -3 -18 0
-200 -94 -279 -145 -184 -117 -375 -299 -505 -480 -83 -115 -195 -338 -240
-479 -213 -666 -38 -1370 462 -1857 148 -145 273 -232 463 -323 434 -208 883
-240 1335 -97 618 197 1078 707 1216 1346 82 382 25 820 -154 1177 -194 386
-537 704 -935 866 l-54 22 7 2417 c4 1330 10 3280 14 4333 3 1053 3 1942 -2
1975 -24 193 -144 381 -305 479 -134 81 -326 114 -472 81z m85 -2985 c-88 -3
-148 -7 -132 -8 l27 -2 0 -3125 0 -3124 88 -4 c48 -1 -48 -4 -213 -5 l-300 -2
6 1982 c3 1091 7 2504 8 3141 l1 1157 338 -2 c267 -2 304 -3 177 -8z m640
-6369 c-4 -14 1 -20 22 -25 53 -13 249 -115 340 -178 450 -308 707 -753 754
-1301 25 -294 -27 -572 -160 -852 -219 -458 -592 -775 -1080 -915 -174 -50
-276 -64 -476 -63 -155 0 -197 4 -305 26 -601 126 -1043 490 -1274 1049 -95
230 -136 496 -116 748 42 522 280 957 692 1263 102 76 228 150 331 193 73 31
86 40 82 56 -6 17 15 18 595 18 584 0 601 -1 595 -19z"/>
<path d="M6510 2894 c-167 -21 -262 -47 -387 -104 -85 -39 -223 -121 -223
-132 0 -4 -4 -8 -10 -8 -31 0 -226 -202 -294 -305 -97 -146 -159 -293 -196
-465 -23 -107 -28 -369 -9 -462 18 -89 52 -212 61 -222 4 -6 8 -16 8 -24 0
-28 123 -259 150 -282 3 -3 17 -21 30 -40 14 -19 34 -44 45 -56 11 -11 42 -44
68 -72 26 -29 50 -52 52 -52 3 0 13 -8 23 -18 68 -66 243 -168 372 -217 141
-53 307 -85 442 -85 138 0 341 39 465 89 128 51 271 134 353 206 86 74 196
193 224 244 5 9 16 22 23 29 7 7 13 17 13 22 0 5 6 15 13 22 43 43 139 287
168 428 21 98 18 405 -4 498 -63 262 -168 454 -350 638 -55 56 -113 109 -128
118 -16 9 -34 22 -41 29 -46 43 -207 123 -333 165 -100 33 -167 47 -300 62
-104 12 -98 12 -235 -6z"/>
<path d="M7505 12001 c-28 -12 -62 -51 -74 -84 -15 -40 -14 -172 3 -210 31
-74 109 -103 170 -64 84 55 89 268 9 340 -24 21 -80 30 -108 18z m60 -95 c29
-21 34 -142 8 -175 -24 -30 -60 -21 -70 17 -14 49 -7 131 12 152 21 24 25 24
50 6z"/>
<path d="M7910 11998 c-126 -36 -200 -206 -187 -427 10 -172 68 -283 169 -326
74 -30 163 -9 220 51 29 31 62 99 72 149 6 28 3 31 -41 50 -26 11 -50 21 -54
23 -4 2 -10 -14 -14 -35 -27 -149 -168 -165 -222 -25 -28 72 -25 270 4 334 52
114 180 112 214 -3 l12 -37 46 15 c25 9 50 19 54 23 4 4 -2 33 -14 65 -28 74
-81 128 -142 143 -53 14 -69 14 -117 0z"/>
<path d="M7580 10875 l0 -95 335 0 335 0 0 95 0 95 -335 0 -335 0 0 -95z"/>
<path d="M7570 10245 l0 -95 335 0 336 0 -3 93 -3 92 -332 3 -333 2 0 -95z"/>
<path d="M7580 9615 l0 -95 330 0 330 0 0 95 0 95 -330 0 -330 0 0 -95z"/>
<path d="M7580 8995 l0 -95 330 0 330 0 0 95 0 95 -330 0 -330 0 0 -95z"/>
<path d="M7570 8375 l0 -95 335 0 336 0 -3 93 -3 92 -332 3 -333 2 0 -95z"/>
<path d="M7570 7745 l0 -95 330 0 330 0 0 95 0 95 -330 0 -330 0 0 -95z"/>
<path d="M7580 7135 l0 -95 333 2 332 3 3 93 3 92 -336 0 -335 0 0 -95z"/>
<path d="M7580 6500 l0 -90 330 0 330 0 0 90 0 90 -330 0 -330 0 0 -90z m570
0 c0 -6 -87 -10 -240 -10 -153 0 -240 4 -240 10 0 6 87 10 240 10 153 0 240
-4 240 -10z"/>
<path d="M7580 5875 l0 -95 333 2 332 3 3 93 3 92 -336 0 -335 0 0 -95z"/>
<path d="M7580 5235 l0 -95 330 0 330 0 0 95 0 95 -330 0 -330 0 0 -95z"/>
<path d="M7570 4625 l0 -95 333 0 332 0 -2 92 -1 93 -331 3 -331 2 0 -95z"/>
<path d="M7580 4005 l0 -95 335 0 335 0 0 95 0 95 -335 0 -335 0 0 -95z"/>
</g>
</svg>
