<?xml version="1.0" standalone="no"?>
<!DOCTYPE svg PUBLIC "-//W3C//DTD SVG 20010904//EN"
 "http://www.w3.org/TR/2001/REC-SVG-20010904/DTD/svg10.dtd">
<svg version="1.0" xmlns="http://www.w3.org/2000/svg"
 width="1280.000000pt" height="951.000000pt" viewBox="0 0 1280.000000 951.000000"
 preserveAspectRatio="xMidYMid meet">
<metadata>
Created by potrace 1.15, written by Peter Selinger 2001-2017
</metadata>
<g transform="translate(0.000000,951.000000) scale(0.100000,-0.100000)"
fill="#000000" stroke="none">
<path d="M10850 9362 c-196 -173 -565 -540 -707 -702 -563 -643 -877 -1227
-943 -1754 -18 -137 -8 -424 18 -543 139 -638 618 -1142 1259 -1322 164 -46
272 -62 458 -68 679 -21 1295 309 1631 873 99 166 173 365 211 567 23 127 23
424 0 562 -104 602 -479 1242 -1143 1947 -154 164 -513 505 -604 575 -12 9
-45 -15 -180 -135z"/>
<path d="M6330 8788 c-253 -236 -793 -777 -990 -994 -1430 -1569 -2159 -2958
-2218 -4224 -16 -331 13 -650 89 -967 302 -1275 1326 -2273 2599 -2533 256
-52 379 -64 670 -64 343 0 525 22 835 101 1288 328 2271 1410 2489 2738 44
264 56 677 28 930 -141 1265 -890 2648 -2236 4130 -199 219 -616 644 -839 853
-120 114 -222 208 -225 209 -4 2 -95 -79 -202 -179z"/>
<path d="M1098 5878 c-220 -235 -310 -341 -463 -543 -560 -738 -748 -1403
-564 -1983 149 -468 529 -815 970 -887 789 -128 1481 629 1378 1510 -62 540
-387 1153 -938 1775 -100 112 -243 260 -252 260 -4 0 -63 -60 -131 -132z"/>
</g>
</svg>
